<svg
  width="18"
  height="19"
  viewBox="0 0 18 19"
  fill="none"
  xmlns="http://www.w3.org/2000/svg"
>
  <path
    d="M17.5625 11.5996H11.4375C11.1959 11.5996 11 11.7955 11 12.0371V18.1621C11 18.4038 11.1959 18.5996 11.4375 18.5996H17.5625C17.8042 18.5996 18 18.4038 18 18.1621V12.0371C18 11.7955 17.8042 11.5996 17.5625 11.5996Z"
    fill="#FF0000"
  />
  <path
    fill-rule="evenodd"
    clip-rule="evenodd"
    d="M6.5625 0.599609H0.4375C0.196875 0.599609 0 0.796484 0 1.03711V7.16211C0 7.40273 0.196875 7.59961 0.4375 7.59961H3.0625C3.30312 7.59961 3.5 7.40273 3.5 7.16211V4.53711C3.5 4.29648 3.69688 4.09961 3.9375 4.09961H6.5625C6.80312 4.09961 7 3.90273 7 3.66211V1.03711C7 0.796484 6.80312 0.599609 6.5625 0.599609Z"
    fill="#FF0000"
  />
  <path
    fill-rule="evenodd"
    clip-rule="evenodd"
    d="M6.5625 11.5996H0.4375C0.196875 11.5996 0 11.7965 0 12.0371V14.6621C0 14.9027 0.196875 15.0996 0.4375 15.0996H3.0625C3.30312 15.0996 3.5 15.2965 3.5 15.5371V18.1621C3.5 18.4027 3.69688 18.5996 3.9375 18.5996H6.5625C6.80312 18.5996 7 18.4027 7 18.1621V12.0371C7 11.7965 6.80312 11.5996 6.5625 11.5996Z"
    fill="#FF0000"
  />
  <path
    fill-rule="evenodd"
    clip-rule="evenodd"
    d="M17.5625 0.599609H14.9375C14.6969 0.599609 14.5 0.796484 14.5 1.03711V3.66211C14.5 3.90273 14.3031 4.09961 14.0625 4.09961H11.4375C11.1969 4.09961 11 4.29648 11 4.53711V7.16211C11 7.40273 11.1969 7.59961 11.4375 7.59961H17.5625C17.8031 7.59961 18 7.40273 18 7.16211V1.03711C18 0.796484 17.8031 0.599609 17.5625 0.599609Z"
    fill="#FF0000"
  />
</svg>
