<svg
  width="364"
  height="330"
  viewBox="0 0 364 330"
  fill="none"
  xmlns="http://www.w3.org/2000/svg"
>
  <g filter="url(#filter0_d_3_7)">
    <path
      d="M4.05432 160.65C4.05432 187.551 30.2921 212.663 71.6562 226.818C63.3959 268.45 70.1767 302.007 92.822 315.081C116.098 328.521 150.775 319.218 183.689 290.413C215.772 318.055 248.196 328.933 270.822 315.82C294.077 302.343 301.148 266.511 292.66 223.579C335.744 209.318 359.844 187.905 359.844 160.65C359.844 134.373 333.559 111.642 292.751 97.5772C301.89 52.871 294.147 20.1292 270.563 6.51419C247.827 -6.61221 215.025 4.82859 182.471 33.1926C148.602 3.08699 116.125 -6.104 92.5661 7.5488C69.8509 20.713 63.3694 54.88 71.6562 97.2818C31.6877 111.233 4.05432 134.48 4.05432 160.65Z"
      fill="white"
    />
    <path
      d="M283.794 111.223C280.431 110.068 277.039 108.998 273.622 108.015C274.189 105.709 274.713 103.394 275.194 101.069C282.893 63.6499 277.859 33.5051 260.667 23.5819C244.185 14.0647 217.227 23.9879 190 47.7081C187.317 50.0508 184.694 52.461 182.133 54.9363C180.418 53.2904 178.672 51.6764 176.897 50.0951C148.363 24.7299 119.762 14.0423 102.589 23.9949C86.1216 33.5387 81.244 61.8789 88.1758 97.3409C88.8655 100.853 89.6442 104.346 90.5111 107.819C86.4642 108.969 82.5557 110.196 78.8165 111.501C45.3644 123.177 24 141.477 24 160.459C24 180.064 46.9334 199.729 81.7782 211.651C84.6036 212.613 87.4525 213.505 90.3223 214.325C89.39 218.066 88.5623 221.832 87.8402 225.619C81.2315 260.465 86.3929 288.133 102.817 297.618C119.781 307.411 148.252 297.345 175.976 273.083C178.167 271.165 180.367 269.131 182.569 266.999C185.343 269.678 188.192 272.28 191.111 274.801C217.965 297.936 244.487 307.278 260.897 297.768C277.845 287.945 283.352 258.222 276.2 222.059C275.655 219.296 275.019 216.475 274.306 213.603C276.305 213.012 278.267 212.401 280.182 211.766C316.405 199.751 339.972 180.326 339.972 160.459C339.972 141.409 317.92 122.985 283.794 111.223Z"
      fill="#FBAEAE"
    />
    <path
      d="M276.252 199.259C274.525 199.832 272.751 200.385 270.945 200.921C266.945 188.247 261.548 174.769 254.945 160.846C261.247 147.252 266.435 133.948 270.323 121.355C273.554 122.293 276.692 123.28 279.715 124.323C308.956 134.399 326.79 149.299 326.79 160.779C326.79 173.008 307.526 188.884 276.252 199.259ZM263.275 225.004C266.436 240.995 266.888 255.452 264.793 266.755C262.911 276.91 259.127 283.681 254.448 286.392C244.49 292.163 223.194 284.662 200.23 264.877C197.597 262.609 194.944 260.187 192.285 257.625C201.188 247.876 210.086 236.541 218.77 223.955C234.046 222.599 248.477 220.38 261.564 217.351C262.208 219.955 262.781 222.508 263.275 225.004ZM132.037 285.396C122.308 288.835 114.56 288.933 109.877 286.23C99.909 280.476 95.767 258.258 101.418 228.459C102.09 224.937 102.859 221.435 103.725 217.956C116.667 220.822 130.994 222.884 146.306 224.127C155.047 236.443 164.202 247.764 173.429 257.677C171.468 259.576 169.461 261.426 167.409 263.227C155.149 273.956 142.864 281.567 132.038 285.396H132.037ZM86.4594 199.184C71.0521 193.911 58.3282 187.06 49.6065 179.584C41.77 172.864 37.8126 166.193 37.8126 160.779C37.8126 149.261 54.9665 134.568 83.576 124.582C87.1669 123.334 90.7935 122.191 94.4512 121.156C98.4058 134.032 103.592 147.494 109.852 161.108C103.511 174.924 98.2506 188.601 94.2596 201.628C91.6399 200.877 89.0391 200.062 86.4594 199.184ZM101.738 95.0656C95.7992 64.6814 99.7426 41.762 109.667 36.0108C120.239 29.8844 143.613 38.6204 168.249 60.5206C169.824 61.9206 171.405 63.3864 172.99 64.9026C163.811 74.7712 154.74 86.0062 146.074 98.2506C131.213 99.6296 116.987 101.844 103.91 104.811C103.104 101.581 102.38 98.3323 101.738 95.0656ZM238.034 128.759C234.945 123.418 231.742 118.143 228.426 112.939C238.508 114.213 248.167 115.907 257.236 117.981C254.514 126.718 251.12 135.855 247.123 145.221C244.203 139.674 241.173 134.185 238.034 128.759ZM182.453 74.5598C188.678 81.312 194.914 88.8524 201.047 97.0326C188.605 96.444 176.143 96.4412 163.702 97.0242C169.841 88.9196 176.129 81.3904 182.453 74.5598ZM126.515 128.852C123.415 134.235 120.441 139.689 117.596 145.211C113.665 135.877 110.302 126.7 107.555 117.838C116.571 115.818 126.185 114.167 136.201 112.914C132.848 118.15 129.618 123.464 126.515 128.852ZM136.489 209.608C126.141 208.452 116.382 206.885 107.369 204.921C110.159 195.902 113.596 186.528 117.611 176.994C120.469 182.519 123.455 187.977 126.569 193.362C129.746 198.856 133.054 204.273 136.489 209.608ZM182.826 247.953C176.428 241.041 170.048 233.397 163.815 225.175C169.864 225.413 176.033 225.533 182.302 225.533C188.742 225.533 195.109 225.389 201.375 225.109C195.223 233.481 189.01 241.136 182.826 247.953ZM247.252 176.508C251.475 186.145 255.035 195.469 257.863 204.336C248.701 206.429 238.81 208.114 228.388 209.366C231.728 204.065 234.962 198.698 238.088 193.269C241.267 187.75 244.322 182.162 247.252 176.508ZM226.395 186.518C221.609 194.842 216.553 203.008 211.237 211.004C201.862 211.674 192.174 212.02 182.302 212.02C172.47 212.02 162.905 211.714 153.694 211.116C148.239 203.139 143.088 194.959 138.251 186.592C133.437 178.27 128.94 169.768 124.771 161.104C128.93 152.437 133.413 143.93 138.211 135.601V135.604C143.007 127.273 148.117 119.128 153.531 111.185C162.928 110.474 172.563 110.102 182.303 110.102C192.086 110.102 201.733 110.477 211.128 111.194C216.487 119.124 221.565 127.241 226.352 135.53C231.166 143.84 235.709 152.305 239.973 160.912C235.753 169.606 231.223 178.147 226.395 186.518ZM254.241 35.609C264.821 41.7186 268.937 66.3544 262.289 98.6622C261.853 100.767 261.379 102.863 260.868 104.951C247.76 101.923 233.524 99.6688 218.62 98.2688C209.938 85.8914 200.942 74.6368 191.911 64.8956C194.278 62.6116 196.7 60.3868 199.177 58.2232C222.505 37.898 244.307 29.8732 254.241 35.609Z"
      fill="white"
    />
    <path
      d="M210.525 166.4H189.875C189.06 166.4 188.4 167.06 188.4 167.875V188.525C188.4 189.34 189.06 190 189.875 190H210.525C211.34 190 212 189.34 212 188.525V167.875C212 167.06 211.34 166.4 210.525 166.4Z"
      fill="#FF0000"
    />
    <path
      fill-rule="evenodd"
      clip-rule="evenodd"
      d="M175.125 131H154.475C153.664 131 153 131.664 153 132.475V153.125C153 153.936 153.664 154.6 154.475 154.6H163.325C164.136 154.6 164.8 153.936 164.8 153.125V144.275C164.8 143.464 165.464 142.8 166.275 142.8H175.125C175.936 142.8 176.6 142.136 176.6 141.325V132.475C176.6 131.664 175.936 131 175.125 131Z"
      fill="#FF0000"
    />
    <path
      fill-rule="evenodd"
      clip-rule="evenodd"
      d="M175.125 166.4H154.475C153.664 166.4 153 167.064 153 167.875V176.725C153 177.536 153.664 178.2 154.475 178.2H163.325C164.136 178.2 164.8 178.864 164.8 179.675V188.525C164.8 189.336 165.464 190 166.275 190H175.125C175.936 190 176.6 189.336 176.6 188.525V167.875C176.6 167.064 175.936 166.4 175.125 166.4Z"
      fill="#FF0000"
    />
    <path
      fill-rule="evenodd"
      clip-rule="evenodd"
      d="M210.525 131H201.675C200.864 131 200.2 131.664 200.2 132.475V141.325C200.2 142.136 199.536 142.8 198.725 142.8H189.875C189.064 142.8 188.4 143.464 188.4 144.275V153.125C188.4 153.936 189.064 154.6 189.875 154.6H210.525C211.336 154.6 212 153.936 212 153.125V132.475C212 131.664 211.336 131 210.525 131Z"
      fill="#FF0000"
    />
  </g>
  <defs>
    <filter
      id="filter0_d_3_7"
      x="-1"
      y="0"
      width="366"
      height="330"
      filterUnits="userSpaceOnUse"
      color-interpolation-filters="sRGB"
    >
      <feFlood flood-opacity="0" result="BackgroundImageFix" />
      <feColorMatrix
        in="SourceAlpha"
        type="matrix"
        values="0 0 0 0 0 0 0 0 0 0 0 0 0 0 0 0 0 0 127 0"
        result="hardAlpha"
      />
      <feOffset dy="4" />
      <feGaussianBlur stdDeviation="2" />
      <feComposite in2="hardAlpha" operator="out" />
      <feColorMatrix
        type="matrix"
        values="0 0 0 0 0 0 0 0 0 0 0 0 0 0 0 0 0 0 0.25 0"
      />
      <feBlend
        mode="normal"
        in2="BackgroundImageFix"
        result="effect1_dropShadow_3_7"
      />
      <feBlend
        mode="normal"
        in="SourceGraphic"
        in2="effect1_dropShadow_3_7"
        result="shape"
      />
    </filter>
  </defs>
</svg>
