<svg
  width="108"
  height="26"
  viewBox="0 0 108 26"
  fill="none"
  xmlns="http://www.w3.org/2000/svg"
>
  <path
    d="M18.5625 12.5996H12.4375C12.1959 12.5996 12 12.7955 12 13.0371V19.1621C12 19.4038 12.1959 19.5996 12.4375 19.5996H18.5625C18.8042 19.5996 19 19.4038 19 19.1621V13.0371C19 12.7955 18.8042 12.5996 18.5625 12.5996Z"
    fill="#FF0000"
  />
  <path
    fill-rule="evenodd"
    clip-rule="evenodd"
    d="M7.5625 1.59961H1.4375C1.19687 1.59961 1 1.79648 1 2.03711V8.16211C1 8.40273 1.19687 8.59961 1.4375 8.59961H4.0625C4.30312 8.59961 4.5 8.40273 4.5 8.16211V5.53711C4.5 5.29648 4.69688 5.09961 4.9375 5.09961H7.5625C7.80312 5.09961 8 4.90273 8 4.66211V2.03711C8 1.79648 7.80312 1.59961 7.5625 1.59961Z"
    fill="#FF0000"
  />
  <path
    fill-rule="evenodd"
    clip-rule="evenodd"
    d="M7.5625 12.5996H1.4375C1.19687 12.5996 1 12.7965 1 13.0371V15.6621C1 15.9027 1.19687 16.0996 1.4375 16.0996H4.0625C4.30312 16.0996 4.5 16.2965 4.5 16.5371V19.1621C4.5 19.4027 4.69688 19.5996 4.9375 19.5996H7.5625C7.80312 19.5996 8 19.4027 8 19.1621V13.0371C8 12.7965 7.80312 12.5996 7.5625 12.5996Z"
    fill="#FF0000"
  />
  <path
    fill-rule="evenodd"
    clip-rule="evenodd"
    d="M18.5625 1.59961H15.9375C15.6969 1.59961 15.5 1.79648 15.5 2.03711V4.66211C15.5 4.90273 15.3031 5.09961 15.0625 5.09961H12.4375C12.1969 5.09961 12 5.29648 12 5.53711V8.16211C12 8.40273 12.1969 8.59961 12.4375 8.59961H18.5625C18.8031 8.59961 19 8.40273 19 8.16211V2.03711C19 1.79648 18.8031 1.59961 18.5625 1.59961Z"
    fill="#FF0000"
  />
  <path
    d="M104.135 24.7327V17.6031H104.004C103.508 18.5793 102.47 19.9476 100.17 19.9476C97.0144 19.9476 94.6523 17.4462 94.6523 13.0359C94.6523 8.57341 97.0841 6.15039 100.178 6.15039C102.54 6.15039 103.525 7.57108 104.004 8.53854H104.196V6.32471H107.299V24.7327H104.135ZM101.05 17.359C103.063 17.359 104.196 15.6158 104.196 13.0185C104.196 10.4212 103.081 8.73901 101.05 8.73901C98.9493 8.73901 97.8685 10.5258 97.8685 13.0185C97.8685 15.5287 98.9667 17.359 101.05 17.359Z"
    fill="#D3D5DE"
  />
  <path
    d="M88.8554 19.713V6.32541H92.0105V19.713H88.8554ZM90.4417 4.42535C89.4306 4.42535 88.6113 3.65835 88.6113 2.71703C88.6113 1.767 89.4306 1 90.4417 1C91.444 1 92.2633 1.767 92.2633 2.71703C92.2633 3.65835 91.444 4.42535 90.4417 4.42535Z"
    fill="#D3D5DE"
  />
  <path
    d="M73.4824 19.7134V1.86328H76.6376V8.53965H76.7683C77.2477 7.57219 78.2326 6.1515 80.5946 6.1515C83.6887 6.1515 86.1205 8.57452 86.1205 13.0371C86.1205 17.4473 83.7585 19.9488 80.6033 19.9488C78.3023 19.9488 77.2651 18.5804 76.7683 17.6042H76.5853V19.7134H73.4824ZM76.5766 13.0196C76.5766 15.617 77.7096 17.3601 79.723 17.3601C81.8061 17.3601 82.9043 15.5298 82.9043 13.0196C82.9043 10.5269 81.8235 8.74012 79.723 8.74012C77.6922 8.74012 76.5766 10.4223 76.5766 13.0196Z"
    fill="#D3D5DE"
  />
  <path
    d="M64.2489 19.9738C60.3267 19.9738 57.834 17.2109 57.834 13.0708C57.834 8.92204 60.3267 6.15039 64.2489 6.15039C68.171 6.15039 70.6638 8.92204 70.6638 13.0708C70.6638 17.2109 68.171 19.9738 64.2489 19.9738ZM64.2663 17.4462C66.4017 17.4462 67.465 15.5113 67.465 13.0621C67.465 10.6129 66.4017 8.65185 64.2663 8.65185C62.0961 8.65185 61.0327 10.6129 61.0327 13.0621C61.0327 15.5113 62.0961 17.4462 64.2663 17.4462Z"
    fill="#D3D5DE"
  />
  <path
    d="M49.3172 19.9738C45.3951 19.9738 42.9023 17.2109 42.9023 13.0708C42.9023 8.92204 45.3951 6.15039 49.3172 6.15039C53.2394 6.15039 55.7321 8.92204 55.7321 13.0708C55.7321 17.2109 53.2394 19.9738 49.3172 19.9738ZM49.3347 17.4462C51.4701 17.4462 52.5334 15.5113 52.5334 13.0621C52.5334 10.6129 51.4701 8.65185 49.3347 8.65185C47.1644 8.65185 46.1011 10.6129 46.1011 13.0621C46.1011 15.5113 47.1644 17.4462 49.3347 17.4462Z"
    fill="#D3D5DE"
  />
  <path
    d="M30.0547 19.7134V1.86328H33.2098V11.7035H33.4277L38.2389 6.32582H41.9257L36.7398 12.1045L42.2308 19.7134H38.4568L34.3603 13.9871L33.2098 15.216V19.7134H30.0547Z"
    fill="#D3D5DE"
  />
</svg>
