<svg
  width="28"
  height="28"
  viewBox="0 0 28 28"
  fill="none"
  xmlns="http://www.w3.org/2000/svg"
>
  <path
    d="M27.2998 16.7998H17.4998C17.1132 16.7998 16.7998 17.1132 16.7998 17.4998V27.2998C16.7998 27.6865 17.1132 27.9998 17.4998 27.9998H27.2998C27.6865 27.9998 27.9998 27.6865 27.9998 27.2998V17.4998C27.9998 17.1132 27.6865 16.7998 27.2998 16.7998Z"
    fill="#FF0000"
  />
  <path
    fill-rule="evenodd"
    clip-rule="evenodd"
    d="M10.5 0H0.7C0.315 0 0 0.315 0 0.7V10.5C0 10.885 0.315 11.2 0.7 11.2H4.9C5.285 11.2 5.6 10.885 5.6 10.5V6.3C5.6 5.915 5.915 5.6 6.3 5.6H10.5C10.885 5.6 11.2 5.285 11.2 4.9V0.7C11.2 0.315 10.885 0 10.5 0Z"
    fill="#FF0000"
  />
  <path
    fill-rule="evenodd"
    clip-rule="evenodd"
    d="M10.5 16.7998H0.7C0.315 16.7998 0 17.1148 0 17.4998V21.6998C0 22.0848 0.315 22.3998 0.7 22.3998H4.9C5.285 22.3998 5.6 22.7148 5.6 23.0998V27.2998C5.6 27.6848 5.915 27.9998 6.3 27.9998H10.5C10.885 27.9998 11.2 27.6848 11.2 27.2998V17.4998C11.2 17.1148 10.885 16.7998 10.5 16.7998Z"
    fill="#FF0000"
  />
  <path
    fill-rule="evenodd"
    clip-rule="evenodd"
    d="M27.2998 0H23.0998C22.7148 0 22.3998 0.315 22.3998 0.7V4.9C22.3998 5.285 22.0848 5.6 21.6998 5.6H17.4998C17.1148 5.6 16.7998 5.915 16.7998 6.3V10.5C16.7998 10.885 17.1148 11.2 17.4998 11.2H27.2998C27.6848 11.2 27.9998 10.885 27.9998 10.5V0.7C27.9998 0.315 27.6848 0 27.2998 0Z"
    fill="#FF0000"
  />
</svg>
